<?xml version="1.0" encoding="UTF-8" standalone="no"?>
<!-- Created with Inkscape (http://www.inkscape.org/) -->

<svg
   xmlns:dc="http://purl.org/dc/elements/1.1/"
   xmlns:cc="http://creativecommons.org/ns#"
   xmlns:rdf="http://www.w3.org/1999/02/22-rdf-syntax-ns#"
   xmlns:svg="http://www.w3.org/2000/svg"
   xmlns="http://www.w3.org/2000/svg"
   xmlns:xlink="http://www.w3.org/1999/xlink"
   xmlns:sodipodi="http://sodipodi.sourceforge.net/DTD/sodipodi-0.dtd"
   xmlns:inkscape="http://www.inkscape.org/namespaces/inkscape"
   width="64"
   height="64"
   id="svg3832"
   version="1.1"
   inkscape:version="0.48.2 r9819"
   sodipodi:docname="Новый документ 2">
  <defs
     id="defs3834">
    <linearGradient
       inkscape:collect="always"
       xlink:href="#circle5418_1_"
       id="linearGradient3768"
       gradientUnits="userSpaceOnUse"
       gradientTransform="matrix(1,0,0,-1,8.48,-242.9702)"
       x1="72.295898"
       y1="-268.74438"
       x2="222.5569"
       y2="-529.00403" />
    <linearGradient
       id="circle5418_1_"
       gradientUnits="userSpaceOnUse"
       x1="72.295898"
       y1="-268.74438"
       x2="222.5569"
       y2="-529.00403"
       gradientTransform="matrix(1,0,0,-1,8.48,-242.9702)">
      <stop
         offset="0"
         style="stop-color:#FFFFFF"
         id="stop3496" />
      <stop
         offset="1"
         style="stop-color:#231F20"
         id="stop3498" />
    </linearGradient>
    <radialGradient
       inkscape:collect="always"
       xlink:href="#circle5436_1_"
       id="radialGradient3829"
       gradientUnits="userSpaceOnUse"
       gradientTransform="matrix(1,0,0,-1,8.48,-242.9702)"
       cx="147.4248"
       cy="-398.87521"
       r="143.1487" />
    <radialGradient
       gradientUnits="userSpaceOnUse"
       gradientTransform="matrix(1,0,0,-1,8.48,-242.9702)"
       r="143.1487"
       cy="-398.87521"
       cx="147.4248"
       id="circle5436_1_">
      <stop
         id="stop3510"
         style="stop-color:#404040"
         offset="0" />
      <stop
         id="stop3512"
         style="stop-color:#000000"
         offset="1" />
    </radialGradient>
    <radialGradient
       r="143.1487"
       cy="-398.87521"
       cx="147.4248"
       gradientTransform="matrix(0.20853855,0,0,-0.20853855,1.2548384,937.18267)"
       gradientUnits="userSpaceOnUse"
       id="radialGradient3903"
       xlink:href="#circle5436_1_"
       inkscape:collect="always" />
    <radialGradient
       inkscape:collect="always"
       xlink:href="#circle5436_1_"
       id="radialGradient3954"
       gradientUnits="userSpaceOnUse"
       gradientTransform="matrix(0.20853855,0,0,-0.20853855,1.3271813,937.23663)"
       cx="147.4248"
       cy="-398.87521"
       r="143.1487" />
  </defs>
  <sodipodi:namedview
     id="base"
     pagecolor="#ffffff"
     bordercolor="#666666"
     borderopacity="1.0"
     inkscape:pageopacity="0.0"
     inkscape:pageshadow="2"
     inkscape:zoom="7.9195959"
     inkscape:cx="51.217129"
     inkscape:cy="35.149081"
     inkscape:document-units="px"
     inkscape:current-layer="layer1"
     showgrid="false"
     inkscape:snap-center="true"
     inkscape:window-width="1528"
     inkscape:window-height="1031"
     inkscape:window-x="-4"
     inkscape:window-y="-4"
     inkscape:window-maximized="1" />
  <metadata
     id="metadata3837">
    <rdf:RDF>
      <cc:Work
         rdf:about="">
        <dc:format>image/svg+xml</dc:format>
        <dc:type
           rdf:resource="http://purl.org/dc/dcmitype/StillImage" />
        <dc:title></dc:title>
      </cc:Work>
    </rdf:RDF>
  </metadata>
  <g
     inkscape:label="Layer 1"
     inkscape:groupmode="layer"
     id="layer1"
     transform="translate(0,-988.36218)">
    <g
       transform="matrix(0.21296726,0,0,0.21294351,-1.2010013,987.17403)"
       id="g5407">
      <g
         id="g5411">
        <linearGradient
           id="linearGradient3856"
           gradientUnits="userSpaceOnUse"
           x1="72.295898"
           y1="-268.74438"
           x2="222.5569"
           y2="-529.00403"
           gradientTransform="matrix(1,0,0,-1,8.48,-242.9702)">
          <stop
             offset="0"
             style="stop-color:#FFFFFF"
             id="stop3858" />
          <stop
             offset="1"
             style="stop-color:#231F20"
             id="stop3860" />
        </linearGradient>
        <path
           style="fill:url(#linearGradient3768)"
           d="m 306.142,155.90401 c 0.8204,59.07691 -37.15105,116.05143 -91.75737,138.4297 -53.6446,23.364 -120.283451,11.27495 -162.132509,-29.67858 C 9.8450513,225.25181 -5.6279645,160.33492 14.164679,105.97852 33.304289,49.63676 88.651185,8.0957101 148.17488,5.8635007 206.03887,2.123433 263.87641,35.662911 289.70627,87.508836 300.5301,108.57136 306.17805,132.22839 306.142,155.90401 z"
           id="circle5418"
           inkscape:connector-curvature="0" />
      </g>
    </g>
    <path
       inkscape:connector-curvature="0"
       id="circle5436"
       d="m 61.923062,1020.4175 c 0.168519,11.8638 -7.546535,23.2898 -18.568167,27.6458 -10.826072,4.5631 -24.191825,1.887 -32.39253,-6.5372 -8.4241399,-8.2006 -11.10019419,-21.5664 -6.5371839,-32.3924 4.3560792,-11.02176 15.7820249,-18.73682 27.6457949,-18.5683 11.863771,-0.16852 23.289717,7.54654 27.645795,18.5683 1.462024,3.5701 2.209692,7.4266 2.206291,11.2838 z"
       style="fill:url(#radialGradient3954)" />
    <path
       style="fill:#f8b133"
       d="m 32.185832,994.08878 c -0.609534,2.27011 -0.228972,4.69472 -0.158985,6.98872 0.0013,1.6965 -2.478685,3.4972 -1.390157,4.9516 0.671218,-1.0827 2.093057,-2.8496 2.427273,-0.5817 1.515609,1.6146 1.120907,-1.6333 0.06281,-2.0888 -1.423475,-2.7394 -0.136071,-5.92493 -0.754008,-8.80328 l -0.186929,-0.46654 0,0 z m 1.807412,12.56202 c 0.583388,2.3812 -0.307301,5.0499 0.810161,7.2585 1.659589,1.3187 -0.0139,-2.4571 0.48342,-3.2639 0.0277,-1.3424 0.136496,-3.3286 -1.293581,-3.9946 z m -3.884438,0.2796 c -1.573948,2.1431 -0.556886,5.009 -1.430924,7.4001 -1.409176,2.3537 -4.216593,3.4487 -5.766303,5.7639 -2.378812,2.3192 -5.510999,3.9493 -7.317803,6.7991 -1.310456,1.6501 -1.045112,6.5596 1.930212,4.5108 4.045803,-2.1123 8.403276,-3.745 11.965704,-6.6793 -2.967495,0.4188 -5.186992,2.7988 -8.086095,3.5185 -1.956286,0.9208 -3.875669,2.002 -5.434544,3.5214 -0.306045,-2.7533 0.108884,-5.6423 2.87523,-6.9585 3.613415,-3.2294 7.300385,-6.3844 10.715309,-9.8275 -0.218078,-2.721 1.469269,-5.3049 0.798856,-8.0285 l -0.125522,-0.01 -3.14e-4,-10e-5 -0.123806,-0.01 0,0 z m 4.883008,7.9886 c 1.240841,2.1468 3.603387,3.2759 5.186388,5.1375 2.648601,2.446 5.300253,4.8926 8.084609,7.1848 0.226009,1.3516 0.206383,5.0855 -1.932695,3.1017 -3.48392,-1.8854 -6.728545,-4.4479 -10.699201,-5.2286 1.735054,1.9409 4.432712,2.5078 6.477834,4.0364 2.245304,1.2247 4.566974,2.347 7.03282,3.0534 0.0448,-2.1018 0.705665,-4.551 -1.041303,-6.2047 -2.23054,-2.6098 -5.333633,-4.282 -7.600176,-6.8679 -1.613092,-1.5649 -3.184564,-3.752 -5.508276,-4.2126 z m 0.339514,9.5563 c -1.095504,2.4813 -0.272481,5.318 -1.067291,7.8904 -0.116879,1.1568 -0.276814,4.551 0.656854,4.1426 0.512674,-2.5832 0.45848,-5.2451 0.7366,-7.8569 0.02834,-1.3977 -0.0462,-2.8039 -0.326163,-4.1761 z m -6.251049,0.6291 c -0.691768,2.8324 0.119611,5.7463 0.107085,8.6109 -0.459659,1.2767 1.478334,4.8952 0.958956,1.914 -0.272352,-3.5015 0.391877,-7.2102 -1.066041,-10.5249 z m 0.559199,11.6733 c -2.038176,1.844 -5.105275,3.0771 -5.615853,6.0978 -0.754184,1.7917 0.337644,5.293 2.499464,3.135 1.809559,-1.0625 4.153026,-2.8177 5.97861,-1.5726 2.366794,-1.989 4.26694,1.6744 6.417416,2.3056 2.670116,-0.7884 1.475589,-5.1299 -0.34021,-6.5013 -0.788705,-1.0968 -3.218515,-3.2355 -3.834331,-2.6405 0.793571,2.5402 4.692104,3.0366 4.547706,5.6331 0.38764,1.2753 -0.532412,3.351 -1.646369,1.4582 -1.934702,-1.8386 -4.595385,-1.9227 -7.002204,-1.8178 -2.037623,0.4989 -3.957696,2.3084 -5.780136,2.5779 -0.372881,-2.4963 0.705217,-5.1754 3.242186,-6.0931 0.814757,-0.5944 1.713598,-1.4719 1.533721,-2.5823 z"
       id="path3681"
       inkscape:connector-curvature="0" />
  </g>
</svg>
